<svg xmlns="http://www.w3.org/2000/svg" width="560" height="560" font-family="Helvetica,Arial,sans-serif">
<rect width="560" height="560" fill="white"/>
<text x="280.0" y="30" text-anchor="middle" font-size="16" font-weight="bold">Reliability diagram (factual subset)</text>
<text x="280.0" y="50" text-anchor="middle" font-size="12" fill="#555">below the diagonal = overconfident, above = underconfident; point size = items</text>
<line x1="78.0" y1="482.0" x2="78.0" y2="64.0" stroke="#eee"/>
<line x1="78.0" y1="482.0" x2="532.0" y2="482.0" stroke="#eee"/>
<text x="78.0" y="500.0" text-anchor="middle" font-size="11" fill="#333">0</text>
<text x="68.0" y="486.0" text-anchor="end" font-size="11" fill="#333">0</text>
<line x1="168.8" y1="482.0" x2="168.8" y2="64.0" stroke="#eee"/>
<line x1="78.0" y1="398.4" x2="532.0" y2="398.4" stroke="#eee"/>
<text x="168.8" y="500.0" text-anchor="middle" font-size="11" fill="#333">20</text>
<text x="68.0" y="402.4" text-anchor="end" font-size="11" fill="#333">20</text>
<line x1="259.6" y1="482.0" x2="259.6" y2="64.0" stroke="#eee"/>
<line x1="78.0" y1="314.8" x2="532.0" y2="314.8" stroke="#eee"/>
<text x="259.6" y="500.0" text-anchor="middle" font-size="11" fill="#333">40</text>
<text x="68.0" y="318.8" text-anchor="end" font-size="11" fill="#333">40</text>
<line x1="350.4" y1="482.0" x2="350.4" y2="64.0" stroke="#eee"/>
<line x1="78.0" y1="231.2" x2="532.0" y2="231.2" stroke="#eee"/>
<text x="350.4" y="500.0" text-anchor="middle" font-size="11" fill="#333">60</text>
<text x="68.0" y="235.2" text-anchor="end" font-size="11" fill="#333">60</text>
<line x1="441.2" y1="482.0" x2="441.2" y2="64.0" stroke="#eee"/>
<line x1="78.0" y1="147.6" x2="532.0" y2="147.6" stroke="#eee"/>
<text x="441.2" y="500.0" text-anchor="middle" font-size="11" fill="#333">80</text>
<text x="68.0" y="151.6" text-anchor="end" font-size="11" fill="#333">80</text>
<line x1="532.0" y1="482.0" x2="532.0" y2="64.0" stroke="#eee"/>
<line x1="78.0" y1="64.0" x2="532.0" y2="64.0" stroke="#eee"/>
<text x="532.0" y="500.0" text-anchor="middle" font-size="11" fill="#333">100</text>
<text x="68.0" y="68.0" text-anchor="end" font-size="11" fill="#333">100</text>
<rect x="78.0" y="64.0" width="454.0" height="418.0" fill="none" stroke="#999"/>
<line x1="78.0" y1="482.0" x2="532.0" y2="64.0" stroke="#999" stroke-dasharray="6 4"/>
<text x="404.9" y="147.6" font-size="10" fill="#999" transform="rotate(-37 404.9 147.6)">perfect calibration</text>
<text x="305.0" y="538" text-anchor="middle" font-size="13">stated confidence (%)</text>
<text x="22" y="273.0" text-anchor="middle" font-size="13" transform="rotate(-90 22 273.0)">empirical accuracy (%)</text>
<circle cx="123.4" cy="354.0" r="9.0" fill="#1a66cc" fill-opacity="0.55" stroke="#1a66cc"/>
<circle cx="486.6" cy="64.0" r="4.0" fill="#1a66cc" fill-opacity="0.55" stroke="#1a66cc"/>
<circle cx="532.0" cy="147.6" r="5.2" fill="#1a66cc" fill-opacity="0.55" stroke="#1a66cc"/>
<circle cx="123.4" cy="455.9" r="6.0" fill="#cc3311" fill-opacity="0.55" stroke="#cc3311"/>
<circle cx="168.8" cy="356.6" r="5.2" fill="#cc3311" fill-opacity="0.55" stroke="#cc3311"/>
<circle cx="259.6" cy="482.0" r="4.8" fill="#cc3311" fill-opacity="0.55" stroke="#cc3311"/>
<circle cx="305.0" cy="482.0" r="4.0" fill="#cc3311" fill-opacity="0.55" stroke="#cc3311"/>
<circle cx="350.4" cy="482.0" r="4.4" fill="#cc3311" fill-opacity="0.55" stroke="#cc3311"/>
<circle cx="395.8" cy="273.0" r="4.8" fill="#cc3311" fill-opacity="0.55" stroke="#cc3311"/>
<circle cx="486.6" cy="314.8" r="4.2" fill="#cc3311" fill-opacity="0.55" stroke="#cc3311"/>
<circle cx="532.0" cy="183.4" r="4.6" fill="#cc3311" fill-opacity="0.55" stroke="#cc3311"/>
<circle cx="103.2" cy="80.7" r="6" fill="#1a66cc" fill-opacity="0.55" stroke="#1a66cc"/>
<text x="116.2" y="84.7" font-size="12">this method</text>
<circle cx="103.2" cy="100.7" r="6" fill="#cc3311" fill-opacity="0.55" stroke="#cc3311"/>
<text x="116.2" y="104.7" font-size="12">matched baseline</text>
</svg>